<svg width="179" height="40" viewBox="0 0 179 40" fill="none" xmlns="http://www.w3.org/2000/svg">
<path d="M58.98 0.5H0V39.82H58.98V0.5ZM57.6 38.44H1.38V1.88H57.6V38.44Z" fill="white"/>
<path d="M28.2402 9.0702L29.4802 8.1602L30.7302 9.0702L30.2502 7.6002L31.5202 6.6902H29.9602L29.4802 5.2002L29.0002 6.6902H27.4502L28.7102 7.6002L28.2402 9.0702Z" fill="white"/>
<path d="M21.7998 10.7997L23.0398 9.88969L24.2798 10.7997L23.8098 9.32969L25.0698 8.41969H23.5198L23.0398 6.92969L22.5598 8.41969H21.0098L22.2698 9.32969L21.7998 10.7997Z" fill="white"/>
<path d="M18.33 11.6504L17.85 13.1404H16.29L17.56 14.0504L17.08 15.5204L18.33 14.6104L19.57 15.5204L19.1 14.0504L20.36 13.1404H18.8L18.33 11.6504Z" fill="white"/>
<path d="M16.6001 21.0398L17.8401 21.9498L17.3701 20.4798L18.6301 19.5798H17.0701L16.6001 18.0898L16.1201 19.5798H14.5601L15.8301 20.4798L15.3501 21.9498L16.6001 21.0398Z" fill="white"/>
<path d="M18.8 26.03L18.33 24.54L17.85 26.03H16.29L17.56 26.94L17.08 28.41L18.33 27.5L19.57 28.41L19.1 26.94L20.36 26.03H18.8Z" fill="white"/>
<path d="M23.5298 30.7498L23.0498 29.2598L22.5698 30.7498H21.0098L22.2798 31.6598L21.8098 33.1298L23.0498 32.2198L24.2898 33.1298L23.8198 31.6598L25.0798 30.7498H23.5298Z" fill="white"/>
<path d="M29.9602 32.4597L29.4802 30.9697L29.0102 32.4597H27.4502L28.7102 33.3697L28.2402 34.8397L29.4802 33.9297L30.7302 34.8397L30.2502 33.3697L31.5202 32.4597H29.9602Z" fill="white"/>
<path d="M36.3899 30.7498L35.9099 29.2598L35.4399 30.7498H33.8799L35.1399 31.6598L34.6699 33.1298L35.9099 32.2198L37.1599 33.1298L36.6899 31.6598L37.9499 30.7498H36.3899Z" fill="white"/>
<path d="M41.1101 26.03L40.6401 24.54L40.1601 26.03H38.6001L39.8701 26.94L39.3901 28.41L40.6401 27.5L41.8801 28.41L41.4101 26.94L42.6701 26.03H41.1101Z" fill="white"/>
<path d="M44.3801 19.5603H42.8201L42.3501 18.0703L41.8701 19.5603H40.3101L41.5801 20.4703L41.1001 21.9403L42.3501 21.0303L43.5901 21.9403L43.1201 20.4703L44.3801 19.5603Z" fill="white"/>
<path d="M39.3901 15.4996L40.6401 14.5896L41.8801 15.4996L41.4101 14.0296L42.6701 13.1196H41.1101L40.6401 11.6396L40.1601 13.1296L38.6001 13.1196L39.8701 14.0296L39.3901 15.4996Z" fill="white"/>
<path d="M35.9299 6.92969L35.4599 8.41969H33.8999L35.1599 9.32969L34.6899 10.7997L35.9299 9.88969L37.1799 10.7997L36.7099 9.32969L37.9699 8.41969H36.4099L35.9299 6.92969Z" fill="white"/>
<path d="M74.12 12.1198L76.04 12.7298C75.75 13.7998 75.26 14.5998 74.57 15.1098C73.88 15.6298 73.02 15.8898 71.97 15.8898C70.67 15.8898 69.6 15.4398 68.76 14.5598C67.92 13.6698 67.5 12.4598 67.5 10.9098C67.5 9.27977 67.92 8.00976 68.76 7.10976C69.6 6.20976 70.71 5.75977 72.08 5.75977C73.28 5.75977 74.25 6.10977 75 6.81977C75.45 7.23977 75.78 7.83977 76 8.61977L74.04 9.08977C73.92 8.57977 73.68 8.17977 73.31 7.88977C72.94 7.58977 72.5 7.44976 71.97 7.44976C71.24 7.44976 70.65 7.70977 70.2 8.22977C69.75 8.74977 69.52 9.59977 69.52 10.7598C69.52 11.9998 69.74 12.8798 70.19 13.4098C70.64 13.9398 71.22 14.1998 71.93 14.1998C72.46 14.1998 72.91 14.0298 73.29 13.6998C73.67 13.3698 73.94 12.8398 74.11 12.1198" fill="white"/>
<path d="M79.1502 12.1797C79.1502 12.8797 79.3202 13.4197 79.6502 13.7997C79.9802 14.1697 80.4002 14.3597 80.8902 14.3597C81.3802 14.3597 81.7902 14.1697 82.1202 13.7997C82.4502 13.4197 82.6202 12.8797 82.6202 12.1697C82.6202 11.4597 82.4502 10.9397 82.1202 10.5597C81.7902 10.1897 81.3802 9.99973 80.8902 9.99973C80.4002 9.99973 79.9902 10.1897 79.6502 10.5597C79.3202 10.9297 79.1502 11.4697 79.1502 12.1797ZM77.2202 12.0797C77.2202 11.4597 77.3702 10.8497 77.6802 10.2697C77.9902 9.68973 78.4202 9.23973 78.9902 8.92973C79.5602 8.61973 80.1802 8.46973 80.8802 8.46973C81.9502 8.46973 82.8302 8.81973 83.5202 9.51973C84.2102 10.2197 84.5502 11.0997 84.5502 12.1597C84.5502 13.2197 84.2002 14.1197 83.5102 14.8297C82.8202 15.5397 81.9402 15.8897 80.8902 15.8897C80.2402 15.8897 79.6202 15.7397 79.0302 15.4497C78.4402 15.1597 77.9902 14.7197 77.6802 14.1597C77.3702 13.5897 77.2202 12.8997 77.2202 12.0797Z" fill="white"/>
<path d="M85.1401 8.62H86.1801V8.09C86.1801 7.49 86.2401 7.05 86.3701 6.75C86.5001 6.46 86.7301 6.22 87.0701 6.03C87.4101 5.85 87.8401 5.75 88.3601 5.75C88.8801 5.75 89.4201 5.83 89.9301 5.99L89.6801 7.3C89.3801 7.23 89.0901 7.19 88.8201 7.19C88.5501 7.19 88.3501 7.25 88.2401 7.38C88.1201 7.51 88.0601 7.75 88.0601 8.11V8.61H89.4601V10.09H88.0601V15.71H86.1801V10.09H85.1401V8.61V8.62Z" fill="white"/>
<path d="M90.46 8.61992H92.34V15.7199H90.46V8.61992ZM90.46 5.91992H92.34V7.65992H90.46V5.91992Z" fill="white"/>
<path d="M100.67 15.7297H98.7902V12.1097C98.7902 11.3397 98.7502 10.8497 98.6702 10.6197C98.5902 10.3997 98.4602 10.2197 98.2802 10.0897C98.1002 9.96973 97.8802 9.89973 97.6302 9.89973C97.3002 9.89973 97.0102 9.98973 96.7502 10.1697C96.4902 10.3497 96.3102 10.5797 96.2202 10.8797C96.1202 11.1697 96.0802 11.7197 96.0802 12.5097V15.7297H94.2002V8.62973H95.9502V9.66973C96.5702 8.86973 97.3502 8.46973 98.2902 8.46973C98.7102 8.46973 99.0802 8.53973 99.4302 8.68973C99.7702 8.83973 100.03 9.02973 100.21 9.25973C100.39 9.48973 100.51 9.74973 100.58 10.0497C100.65 10.3497 100.68 10.7697 100.68 11.3097V15.7197L100.67 15.7297Z" fill="white"/>
<path d="M106.44 12.32C106.2 12.4 105.82 12.5 105.3 12.61C104.78 12.72 104.44 12.83 104.28 12.94C104.03 13.11 103.91 13.34 103.91 13.6C103.91 13.86 104.01 14.09 104.2 14.28C104.4 14.47 104.65 14.57 104.95 14.57C105.29 14.57 105.61 14.46 105.92 14.24C106.15 14.07 106.3 13.86 106.37 13.62C106.42 13.46 106.44 13.15 106.44 12.7V12.33V12.32ZM103.92 10.79L102.22 10.48C102.41 9.78996 102.74 9.28996 103.21 8.94996C103.68 8.61996 104.37 8.45996 105.3 8.45996C106.14 8.45996 106.76 8.55996 107.17 8.75996C107.58 8.95996 107.87 9.20996 108.04 9.51996C108.21 9.81996 108.29 10.39 108.29 11.2L108.27 13.39C108.27 14.01 108.3 14.47 108.36 14.77C108.42 15.07 108.53 15.38 108.7 15.72H106.84C106.79 15.6 106.73 15.41 106.66 15.17L106.59 14.95C106.27 15.26 105.93 15.5 105.56 15.65C105.19 15.81 104.8 15.88 104.39 15.88C103.66 15.88 103.08 15.68 102.66 15.28C102.24 14.88 102.03 14.38 102.03 13.78C102.03 13.38 102.13 13.02 102.32 12.71C102.51 12.4 102.78 12.16 103.13 11.99C103.47 11.82 103.97 11.68 104.62 11.55C105.5 11.39 106.11 11.23 106.45 11.09V10.9C106.45 10.54 106.36 10.28 106.18 10.13C106 9.97996 105.67 9.89996 105.17 9.89996C104.84 9.89996 104.58 9.96996 104.39 10.1C104.2 10.23 104.05 10.46 103.94 10.79" fill="white"/>
<path d="M116.53 15.7297H114.65V12.1097C114.65 11.3397 114.61 10.8497 114.53 10.6197C114.45 10.3997 114.32 10.2197 114.14 10.0897C113.96 9.96973 113.74 9.89973 113.49 9.89973C113.16 9.89973 112.87 9.98973 112.61 10.1697C112.35 10.3497 112.17 10.5797 112.08 10.8797C111.98 11.1697 111.94 11.7197 111.94 12.5097V15.7297H110.06V8.62973H111.81V9.66973C112.43 8.86973 113.21 8.46973 114.15 8.46973C114.57 8.46973 114.94 8.53973 115.29 8.68973C115.63 8.83973 115.89 9.02973 116.07 9.25973C116.25 9.48973 116.37 9.74973 116.44 10.0497C116.51 10.3397 116.54 10.7697 116.54 11.3097V15.7197L116.53 15.7297Z" fill="white"/>
<path d="M124.57 10.7297L122.72 11.0597C122.66 10.6897 122.52 10.4097 122.3 10.2197C122.08 10.0297 121.79 9.93973 121.44 9.93973C120.97 9.93973 120.6 10.0997 120.32 10.4297C120.04 10.7497 119.9 11.2897 119.9 12.0497C119.9 12.8897 120.04 13.4897 120.32 13.8297C120.6 14.1797 120.98 14.3497 121.46 14.3497C121.82 14.3497 122.11 14.2497 122.33 14.0497C122.56 13.8497 122.72 13.4997 122.81 12.9997L124.65 13.3197C124.46 14.1697 124.09 14.8097 123.55 15.2397C123.01 15.6697 122.28 15.8897 121.36 15.8897C120.32 15.8897 119.49 15.5597 118.88 14.9097C118.26 14.2497 117.95 13.3497 117.95 12.1897C117.95 11.0297 118.26 10.1097 118.88 9.44973C119.5 8.79973 120.34 8.46973 121.39 8.46973C122.26 8.46973 122.94 8.65973 123.45 9.02973C123.96 9.39973 124.33 9.96973 124.55 10.7297" fill="white"/>
<path d="M125.92 8.61992H127.8V15.7199H125.92V8.61992ZM125.92 5.91992H127.8V7.65992H125.92V5.91992Z" fill="white"/>
<path d="M133.59 12.32C133.35 12.4 132.97 12.5 132.45 12.61C131.93 12.72 131.59 12.83 131.43 12.94C131.18 13.11 131.06 13.34 131.06 13.6C131.06 13.86 131.16 14.09 131.35 14.28C131.55 14.47 131.8 14.57 132.1 14.57C132.44 14.57 132.76 14.46 133.07 14.24C133.3 14.07 133.45 13.86 133.52 13.62C133.57 13.46 133.59 13.15 133.59 12.7V12.33V12.32ZM131.08 10.79L129.38 10.48C129.57 9.78996 129.9 9.28996 130.37 8.94996C130.84 8.61996 131.53 8.45996 132.45 8.45996C133.29 8.45996 133.91 8.55996 134.32 8.75996C134.73 8.95996 135.02 9.20996 135.19 9.51996C135.36 9.82996 135.44 10.39 135.44 11.2L135.42 13.39C135.42 14.01 135.45 14.47 135.51 14.77C135.57 15.07 135.68 15.38 135.85 15.72H133.99C133.94 15.6 133.88 15.41 133.81 15.17L133.74 14.95C133.42 15.26 133.08 15.5 132.71 15.65C132.34 15.81 131.95 15.88 131.54 15.88C130.81 15.88 130.23 15.68 129.81 15.28C129.39 14.88 129.18 14.38 129.18 13.78C129.18 13.38 129.28 13.02 129.47 12.71C129.66 12.4 129.93 12.16 130.27 11.99C130.62 11.82 131.11 11.68 131.77 11.55C132.65 11.39 133.26 11.23 133.59 11.09V10.9C133.59 10.54 133.5 10.28 133.32 10.13C133.14 9.97996 132.81 9.89996 132.31 9.89996C131.98 9.89996 131.72 9.96996 131.53 10.1C131.34 10.23 131.19 10.46 131.08 10.79Z" fill="white"/>
<path d="M138.72 12.0204C138.72 12.7804 138.83 13.3304 139.04 13.6704C139.34 14.1604 139.77 14.4104 140.31 14.4104C140.74 14.4104 141.11 14.2304 141.41 13.8604C141.71 13.4904 141.87 12.9404 141.87 12.2104C141.87 11.3904 141.72 10.8104 141.43 10.4504C141.14 10.0904 140.76 9.91043 140.3 9.91043C139.84 9.91043 139.48 10.0904 139.18 10.4404C138.88 10.8004 138.73 11.3204 138.73 12.0304M143.73 15.7304H141.98V14.6904C141.69 15.1004 141.35 15.4004 140.95 15.6004C140.55 15.8004 140.16 15.9004 139.76 15.9004C138.94 15.9004 138.24 15.5704 137.66 14.9104C137.08 14.2504 136.79 13.3404 136.79 12.1604C136.79 10.9804 137.07 10.0404 137.64 9.42043C138.21 8.79043 138.92 8.48043 139.79 8.48043C140.58 8.48043 141.27 8.81043 141.85 9.47043V5.94043H143.73V15.7404V15.7304Z" fill="white"/>
<path d="M147.02 12.1797C147.02 12.8797 147.19 13.4197 147.52 13.7997C147.85 14.1697 148.27 14.3597 148.76 14.3597C149.25 14.3597 149.66 14.1697 149.99 13.7997C150.32 13.4197 150.49 12.8797 150.49 12.1697C150.49 11.4597 150.32 10.9397 149.99 10.5597C149.66 10.1897 149.25 9.99973 148.76 9.99973C148.27 9.99973 147.86 10.1897 147.52 10.5597C147.19 10.9297 147.02 11.4697 147.02 12.1797ZM145.1 12.0797C145.1 11.4597 145.25 10.8497 145.56 10.2697C145.87 9.68973 146.3 9.23973 146.87 8.92973C147.44 8.61973 148.06 8.46973 148.76 8.46973C149.83 8.46973 150.71 8.81973 151.4 9.51973C152.09 10.2197 152.43 11.0997 152.43 12.1597C152.43 13.2197 152.08 14.1197 151.39 14.8297C150.7 15.5397 149.82 15.8897 148.77 15.8897C148.12 15.8897 147.5 15.7397 146.91 15.4497C146.32 15.1597 145.87 14.7197 145.56 14.1597C145.25 13.5897 145.1 12.8997 145.1 12.0797Z" fill="white"/>
<path d="M159.4 12.06C159.4 12.86 159.56 13.45 159.87 13.83C160.19 14.21 160.57 14.4 161.03 14.4C161.49 14.4 161.83 14.23 162.12 13.88C162.41 13.53 162.55 12.96 162.55 12.16C162.55 11.42 162.4 10.86 162.1 10.5C161.8 10.14 161.43 9.95996 160.99 9.95996C160.55 9.95996 160.15 10.14 159.85 10.49C159.55 10.84 159.39 11.37 159.39 12.06M157.54 8.61996H159.29V9.65996C159.52 9.29996 159.83 9.00996 160.21 8.78996C160.6 8.56996 161.03 8.45996 161.5 8.45996C162.32 8.45996 163.03 8.77996 163.6 9.42996C164.18 10.08 164.46 10.98 164.46 12.13C164.46 13.28 164.17 14.24 163.59 14.9C163.01 15.56 162.31 15.89 161.48 15.89C161.09 15.89 160.73 15.81 160.41 15.66C160.09 15.5 159.76 15.24 159.4 14.86V18.44H157.52V8.63996L157.54 8.61996Z" fill="white"/>
<path d="M167.39 12.1797C167.39 12.8797 167.56 13.4197 167.89 13.7997C168.22 14.1697 168.64 14.3597 169.13 14.3597C169.62 14.3597 170.03 14.1697 170.36 13.7997C170.69 13.4197 170.86 12.8797 170.86 12.1697C170.86 11.4597 170.69 10.9397 170.36 10.5597C170.03 10.1897 169.62 9.99973 169.13 9.99973C168.64 9.99973 168.23 10.1897 167.89 10.5597C167.56 10.9297 167.39 11.4697 167.39 12.1797ZM165.47 12.0797C165.47 11.4597 165.62 10.8497 165.93 10.2697C166.24 9.68973 166.67 9.23973 167.24 8.92973C167.81 8.61973 168.43 8.46973 169.13 8.46973C170.2 8.46973 171.08 8.81973 171.77 9.51973C172.46 10.2197 172.8 11.0997 172.8 12.1597C172.8 13.2197 172.45 14.1197 171.76 14.8297C171.07 15.5397 170.19 15.8897 169.14 15.8897C168.49 15.8897 167.87 15.7397 167.28 15.4497C166.69 15.1597 166.24 14.7197 165.93 14.1597C165.62 13.5897 165.47 12.8997 165.47 12.0797Z" fill="white"/>
<path d="M176.01 15.7297H174.13V8.62973H175.88V9.63973C176.18 9.15973 176.45 8.84973 176.68 8.69973C176.92 8.54973 177.19 8.46973 177.49 8.46973C177.92 8.46973 178.33 8.58973 178.73 8.81973L178.15 10.4597C177.83 10.2497 177.54 10.1497 177.27 10.1497C177 10.1497 176.78 10.2197 176.6 10.3697C176.42 10.5197 176.27 10.7797 176.17 11.1597C176.06 11.5397 176.01 12.3297 176.01 13.5397V15.7297Z" fill="white"/>
<path d="M69.7799 22.0703H67.8999V31.8703H69.7799V22.0703Z" fill="white"/>
<path d="M75.5702 28.4604C75.3302 28.5404 74.9502 28.6404 74.4302 28.7504C73.9102 28.8604 73.5702 28.9704 73.4102 29.0804C73.1602 29.2504 73.0402 29.4804 73.0402 29.7404C73.0402 30.0004 73.1402 30.2304 73.3302 30.4204C73.5302 30.6104 73.7802 30.7104 74.0802 30.7104C74.4202 30.7104 74.7402 30.6004 75.0502 30.3804C75.2802 30.2104 75.4302 30.0004 75.5002 29.7604C75.5502 29.6004 75.5702 29.2904 75.5702 28.8404V28.4704V28.4604ZM73.0602 26.9404L71.3602 26.6304C71.5502 25.9404 71.8802 25.4404 72.3502 25.1004C72.8202 24.7704 73.5102 24.6104 74.4302 24.6104C75.2702 24.6104 75.8902 24.7104 76.3002 24.9104C76.7102 25.1104 77.0002 25.3604 77.1702 25.6704C77.3402 25.9804 77.4202 26.5404 77.4202 27.3504L77.4002 29.5404C77.4002 30.1604 77.4302 30.6204 77.4902 30.9204C77.5502 31.2204 77.6602 31.5404 77.8302 31.8704H75.9702C75.9202 31.7504 75.8602 31.5604 75.7902 31.3204L75.7202 31.1004C75.4002 31.4104 75.0602 31.6504 74.6902 31.8004C74.3202 31.9604 73.9302 32.0304 73.5202 32.0304C72.7902 32.0304 72.2102 31.8304 71.7902 31.4304C71.3702 31.0304 71.1602 30.5304 71.1602 29.9304C71.1602 29.5304 71.2502 29.1704 71.4502 28.8604C71.6402 28.5504 71.9102 28.3104 72.2602 28.1404C72.6002 27.9704 73.1002 27.8304 73.7502 27.7004C74.6302 27.5404 75.2402 27.3804 75.5702 27.2404V27.0504C75.5702 26.6904 75.4802 26.4304 75.3002 26.2804C75.1202 26.1304 74.7902 26.0504 74.2902 26.0504C73.9602 26.0504 73.7002 26.1204 73.5102 26.2504C73.3202 26.3804 73.1702 26.6104 73.0602 26.9404Z" fill="white"/>
<path d="M82.9502 22.0703H84.9302V27.3803C84.9302 28.2203 84.9502 28.7703 85.0002 29.0203C85.0802 29.4203 85.2902 29.7403 85.6102 29.9903C85.9302 30.2303 86.3602 30.3503 86.9202 30.3503C87.4802 30.3503 87.9102 30.2303 88.1902 30.0103C88.4802 29.7803 88.6502 29.5003 88.7002 29.1603C88.7602 28.8303 88.7902 28.2703 88.7902 27.5003V22.0803H90.7702V27.2303C90.7702 28.4103 90.7202 29.2403 90.6102 29.7203C90.5002 30.2103 90.3102 30.6203 90.0202 30.9503C89.7302 31.2803 89.3502 31.5503 88.8702 31.7503C88.3902 31.9503 87.7602 32.0503 86.9902 32.0503C86.0502 32.0503 85.3402 31.9403 84.8602 31.7303C84.3802 31.5103 83.9902 31.2303 83.7102 30.8903C83.4302 30.5403 83.2402 30.1803 83.1602 29.8003C83.0302 29.2403 82.9702 28.4103 82.9702 27.3103V22.0803L82.9502 22.0703Z" fill="white"/>
<path d="M99.2298 31.8704H97.3498V28.2504C97.3498 27.4804 97.3098 26.9904 97.2298 26.7604C97.1498 26.5404 97.0198 26.3604 96.8398 26.2304C96.6598 26.1104 96.4398 26.0404 96.1898 26.0404C95.8598 26.0404 95.5698 26.1304 95.3098 26.3104C95.0498 26.4904 94.8698 26.7204 94.7798 27.0204C94.6798 27.3104 94.6398 27.8604 94.6398 28.6504V31.8704H92.7598V24.7704H94.5098V25.8104C95.1298 25.0104 95.9098 24.6104 96.8498 24.6104C97.2698 24.6104 97.6398 24.6804 97.9898 24.8304C98.3298 24.9804 98.5898 25.1704 98.7698 25.4004C98.9498 25.6304 99.0698 25.8904 99.1398 26.1904C99.2098 26.4804 99.2398 26.9104 99.2398 27.4504V31.8604L99.2298 31.8704Z" fill="white"/>
<path d="M101.08 24.7703H102.96V31.8703H101.08V24.7703ZM101.08 22.0703H102.96V23.8103H101.08V22.0703Z" fill="white"/>
<path d="M107.11 23.9004L108.03 21.9004H110.14L108.3 23.9004H107.11ZM106.32 28.3204C106.32 29.0204 106.49 29.5604 106.82 29.9404C107.15 30.3104 107.57 30.5004 108.06 30.5004C108.55 30.5004 108.96 30.3104 109.29 29.9404C109.62 29.5704 109.79 29.0204 109.79 28.3104C109.79 27.6004 109.62 27.0804 109.29 26.7004C108.96 26.3304 108.55 26.1404 108.06 26.1404C107.57 26.1404 107.16 26.3304 106.82 26.7004C106.49 27.0704 106.32 27.6104 106.32 28.3204ZM104.4 28.2204C104.4 27.6004 104.55 26.9904 104.86 26.4104C105.17 25.8304 105.6 25.3804 106.17 25.0704C106.74 24.7604 107.36 24.6104 108.06 24.6104C109.13 24.6104 110.01 24.9604 110.7 25.6604C111.39 26.3604 111.73 27.2404 111.73 28.3004C111.73 29.3604 111.38 30.2604 110.69 30.9704C110 31.6804 109.12 32.0304 108.07 32.0304C107.42 32.0304 106.8 31.8804 106.21 31.5904C105.62 31.3004 105.17 30.8704 104.86 30.3004C104.55 29.7304 104.4 29.0404 104.4 28.2204Z" fill="white"/>
<path d="M119.6 31.8704H117.72V28.2504C117.72 27.4804 117.68 26.9904 117.6 26.7604C117.52 26.5404 117.39 26.3604 117.21 26.2304C117.03 26.1104 116.81 26.0404 116.56 26.0404C116.23 26.0404 115.94 26.1304 115.68 26.3104C115.42 26.4904 115.24 26.7204 115.15 27.0204C115.06 27.3104 115.01 27.8604 115.01 28.6504V31.8704H113.13V24.7704H114.88V25.8104C115.5 25.0104 116.28 24.6104 117.22 24.6104C117.64 24.6104 118.01 24.6804 118.36 24.8304C118.7 24.9804 118.96 25.1704 119.14 25.4004C119.32 25.6304 119.44 25.8904 119.51 26.1904C119.58 26.4904 119.61 26.9104 119.61 27.4504V31.8604L119.6 31.8704Z" fill="white"/>
<path d="M125.22 31.8703V22.0703H132.48V23.7303H127.19V25.9003H132.12V27.5503H127.19V30.2203H132.67V31.8703H125.22Z" fill="white"/>
<path d="M138.96 31.8703V30.8103C138.7 31.1903 138.36 31.4903 137.94 31.7103C137.52 31.9303 137.07 32.0403 136.61 32.0403C136.15 32.0403 135.7 31.9403 135.33 31.7303C134.95 31.5203 134.68 31.2303 134.51 30.8503C134.34 30.4703 134.26 29.9503 134.26 29.2803V24.7903H136.14V28.0503C136.14 29.0503 136.17 29.6603 136.24 29.8903C136.31 30.1103 136.43 30.2903 136.62 30.4203C136.8 30.5503 137.03 30.6203 137.32 30.6203C137.64 30.6203 137.93 30.5303 138.18 30.3603C138.43 30.1803 138.61 29.9603 138.7 29.7003C138.79 29.4403 138.84 28.8003 138.84 27.7803V24.7803H140.72V31.8803H138.97L138.96 31.8703Z" fill="white"/>
<path d="M144.39 31.8704H142.51V24.7704H144.26V25.7804C144.56 25.3004 144.83 24.9904 145.06 24.8404C145.3 24.6904 145.57 24.6104 145.87 24.6104C146.3 24.6104 146.71 24.7304 147.11 24.9604L146.53 26.6004C146.21 26.3904 145.92 26.2904 145.65 26.2904C145.38 26.2904 145.16 26.3604 144.98 26.5104C144.8 26.6604 144.65 26.9204 144.55 27.3004C144.44 27.6804 144.39 28.4704 144.39 29.6804V31.8704Z" fill="white"/>
<path d="M149.34 28.3204C149.34 29.0204 149.51 29.5604 149.84 29.9404C150.17 30.3104 150.59 30.5004 151.08 30.5004C151.57 30.5004 151.98 30.3104 152.31 29.9404C152.64 29.5704 152.81 29.0204 152.81 28.3104C152.81 27.6004 152.64 27.0804 152.31 26.7004C151.98 26.3304 151.57 26.1404 151.08 26.1404C150.59 26.1404 150.18 26.3304 149.84 26.7004C149.51 27.0704 149.34 27.6104 149.34 28.3204ZM147.42 28.2204C147.42 27.6004 147.57 26.9904 147.88 26.4104C148.19 25.8304 148.62 25.3804 149.19 25.0704C149.75 24.7604 150.38 24.6104 151.08 24.6104C152.15 24.6104 153.04 24.9604 153.72 25.6604C154.41 26.3604 154.75 27.2404 154.75 28.3004C154.75 29.3604 154.4 30.2604 153.71 30.9704C153.02 31.6804 152.14 32.0304 151.09 32.0304C150.44 32.0304 149.82 31.8804 149.23 31.5904C148.64 31.3004 148.19 30.8704 147.88 30.3004C147.57 29.7304 147.42 29.0404 147.42 28.2204Z" fill="white"/>
<path d="M157.97 28.2004C157.97 29.0004 158.13 29.5904 158.44 29.9704C158.76 30.3504 159.14 30.5404 159.6 30.5404C160.06 30.5404 160.4 30.3704 160.69 30.0204C160.98 29.6704 161.12 29.1004 161.12 28.3004C161.12 27.5604 160.97 27.0004 160.67 26.6404C160.37 26.2804 160 26.1004 159.56 26.1004C159.12 26.1004 158.72 26.2804 158.42 26.6304C158.12 26.9904 157.96 27.5104 157.96 28.2104M156.11 24.7704H157.86V25.8104C158.09 25.4504 158.4 25.1604 158.78 24.9404C159.17 24.7204 159.6 24.6104 160.07 24.6104C160.89 24.6104 161.59 24.9304 162.17 25.5804C162.75 26.2304 163.03 27.1304 163.03 28.2804C163.03 29.4304 162.74 30.3904 162.16 31.0504C161.58 31.7104 160.88 32.0404 160.05 32.0404C159.66 32.0404 159.3 31.9604 158.98 31.8104C158.66 31.6504 158.33 31.3904 157.97 31.0104V34.5904H156.09V24.7904L156.11 24.7704Z" fill="white"/>
<path d="M168.69 27.7096C168.68 27.1696 168.54 26.7496 168.27 26.4696C168 26.1896 167.68 26.0496 167.29 26.0496C166.88 26.0496 166.54 26.1996 166.27 26.4996C166 26.7996 165.87 27.1996 165.87 27.7196H168.68L168.69 27.7096ZM168.58 29.6096L170.45 29.9196C170.21 30.6096 169.83 31.1296 169.31 31.4896C168.79 31.8496 168.14 32.0296 167.36 32.0296C166.13 32.0296 165.21 31.6296 164.62 30.8196C164.15 30.1696 163.92 29.3596 163.92 28.3696C163.92 27.1896 164.23 26.2696 164.84 25.5996C165.45 24.9296 166.23 24.5996 167.17 24.5996C168.23 24.5996 169.06 24.9496 169.67 25.6496C170.28 26.3496 170.57 27.4196 170.55 28.8596H165.84C165.85 29.4196 166 29.8496 166.29 30.1596C166.58 30.4696 166.94 30.6196 167.37 30.6196C167.66 30.6196 167.91 30.5396 168.11 30.3796C168.31 30.2196 168.46 29.9596 168.56 29.5996" fill="white"/>
<path d="M175.94 28.4604C175.7 28.5404 175.32 28.6404 174.8 28.7504C174.28 28.8604 173.94 28.9704 173.78 29.0804C173.53 29.2504 173.41 29.4804 173.41 29.7404C173.41 30.0004 173.51 30.2304 173.7 30.4204C173.9 30.6104 174.15 30.7104 174.45 30.7104C174.79 30.7104 175.11 30.6004 175.42 30.3804C175.65 30.2104 175.8 30.0004 175.87 29.7604C175.92 29.6004 175.94 29.2904 175.94 28.8404V28.4704V28.4604ZM173.42 26.9404L171.71 26.6304C171.9 25.9404 172.23 25.4404 172.7 25.1004C173.17 24.7704 173.86 24.6104 174.79 24.6104C175.63 24.6104 176.25 24.7104 176.66 24.9104C177.07 25.1104 177.36 25.3604 177.53 25.6704C177.7 25.9804 177.78 26.5404 177.78 27.3504L177.76 29.5404C177.76 30.1604 177.79 30.6204 177.85 30.9204C177.91 31.2204 178.02 31.5404 178.19 31.8704H176.33C176.28 31.7504 176.22 31.5604 176.15 31.3204L176.08 31.1004C175.76 31.4104 175.42 31.6504 175.05 31.8004C174.68 31.9604 174.29 32.0304 173.88 32.0304C173.15 32.0304 172.57 31.8304 172.15 31.4304C171.73 31.0304 171.52 30.5304 171.52 29.9304C171.52 29.5304 171.62 29.1704 171.81 28.8604C172 28.5504 172.27 28.3104 172.61 28.1404C172.96 27.9704 173.45 27.8304 174.11 27.7004C174.99 27.5404 175.6 27.3804 175.93 27.2404V27.0504C175.93 26.6904 175.84 26.4304 175.66 26.2804C175.48 26.1304 175.15 26.0504 174.65 26.0504C174.32 26.0504 174.06 26.1204 173.87 26.2504C173.68 26.3804 173.53 26.6104 173.42 26.9404Z" fill="white"/>
</svg>
